# xmcd
#
# Track frame offsets: 
#        150
#        33363
#        61999
#        79676
#        111989
#        128264
#        146096
#        168536
#        189491
#        205727
#        227845
#        246398
#        264585
#        295675
#        316226
#        343556
#
# Disc length: 4790 seconds
#
# Revision: 1
# Processed by: cddbd v1.5.2PL0 Copyright (c) Steve Scherf et al.
# Submitted via: ExactAudioCopy v1.3
#
DISCID=e412b410
DTITLE=Various Artist - Akella Presents - vol.52 - Black Pure Blues  
DTITLE=CD1
DYEAR=2015
DGENRE=Blues
TTITLE0=Bernard Allison - Bottle Of Whiskey
TTITLE1=Maurice John Vaughn - Love Abuse
TTITLE2=Jarekus Singleton - Purposely
TTITLE3=Walter 'Wolfman' Washington and George Porter, Jr. - I Want To K
TTITLE3=now
TTITLE4=Anthony 'Packrat' Thompson - Braggin' 'bout You Baby
TTITLE5=Back Button - Altered Five Blues Band
TTITLE6=Robert Ward - Lord Have Mercy on Me
TTITLE7=Guy Davis - Home Cooked Meal
TTITLE8=Willie Buck - The Love We Share
TTITLE9=B. B. King and Arthur Adams - Get You Next To Me
TTITLE10=Jackie Payne - You Wrote the Book
TTITLE11=Slam Allen - All Because Of You
TTITLE12=Bo Diddley - Evil Woman
TTITLE13=Luther Johnson and The Magic Rockers - Hard Times
TTITLE14=Sonny Rodgers - Five Long Years
TTITLE15=Rockin' Tabby Thomas - Hey Little School Girl
EXTD=
EXTT0=
EXTT1=
EXTT2=
EXTT3=
EXTT4=
EXTT5=
EXTT6=
EXTT7=
EXTT8=
EXTT9=
EXTT10=
EXTT11=
EXTT12=
EXTT13=
EXTT14=
EXTT15=
PLAYORDER=
